#!OML:ASF F:\VICON\USERDATA\INSTALL\Justin_Nancy\Justin_Nancy.ASF
:FULLY-SPECIFIED
:DEGREES
270
root 1.06605 17.4964 4.54458 -7.15365 -53.0205 9.22637
lowerback 6.57722 -0.435078 -5.79778
upperback 0.490247 -0.97421 1.20834
thorax -3.06662 -0.40402 4.60707
lowerneck -15.0977 -2.84433 -10.3543
upperneck 23.3977 -2.556 4.2275
head 10.1573 -1.67977 2.88564
rclavicle 4.40805e-014 3.18055e-015
rhumerus -35.8274 -13.3345 -77.6514
rradius 31.6396
rwrist 4.10165
rhand -10.7663 15.301
rfingers 7.12502
rthumb 15.2456 -14.1172
lclavicle 4.40805e-014 3.18055e-015
lhumerus -28.4339 17.8968 81.8271
lradius 24.0153
lwrist -11.9129
lhand -15.4948 25.9534
lfingers 7.12502
lthumb 10.6875 55.6615
rfemur -25.7657 0.573335 16.0548
rtibia 69.8408
rfoot -6.87277 -4.11733
rtoes 8.06246
lfemur -7.81365 -1.27066 -29.6431
ltibia 21.734
lfoot -10.9447 -7.75526
ltoes 19.1382
271
root 0.981761 17.4797 4.63454 -7.37841 -52.7747 9.39279
lowerback 6.76986 -0.558759 -5.98505
upperback 0.491803 -1.16405 1.24125
thorax -3.14558 -0.493324 4.76846
lowerneck -15.1931 -2.76095 -10.3495
upperneck 23.4612 -2.42161 4.19469
head 10.1869 -1.62211 2.89165
rclavicle 8.26944e-014 -6.36111e-015
rhumerus -35.9346 -12.9725 -77.7222
rradius 31.9945
rwrist 3.59126
rhand -10.7979 15.1929
rfingers 7.12502
rthumb 15.2152 -14.2276
lclavicle 8.26944e-014 -6.36111e-015
lhumerus -28.1377 17.3512 82.1468
lradius 24.1678
lwrist -11.2742
lhand -16.5706 25.235
lfingers 7.12502
lthumb 9.64966 54.994
rfemur -26.469 0.510717 15.918
rtibia 69.0829
rfoot -7.9656 -4.20662
rtoes 7.57271
lfemur -7.65919 -1.28548 -29.8988
ltibia 22.406
lfoot -11.4006 -7.81565
ltoes 20.0063
272
root 0.901313 17.4506 4.71239 -7.29064 -52.5477 9.35204
lowerback 6.91224 -0.683939 -6.06984
upperback 0.442287 -1.34491 1.31204
thorax -3.25064 -0.576747 4.9112
lowerneck -14.9523 -2.76801 -10.6662
upperneck 23.1469 -2.44633 4.49859
head 10.0377 -1.62035 3.04664
rclavicle 4.5472e-014 -3.97569e-015
rhumerus -35.9196 -12.8581 -77.7314
rradius 32.122
rwrist 3.53259
rhand -11.201 15.129
rfingers 7.12502
rthumb 14.8268 -14.3205
lclavicle 4.5472e-014 -3.97569e-015
lhumerus -27.8677 16.9723 82.4625
lradius 24.3794
lwrist -11.0595
lhand -17.2675 24.9614
lfingers 7.12502
lthumb 8.97726 54.7504
rfemur -27.3835 0.540261 15.9649
rtibia 68.1793
rfoot -8.41433 -4.04381
rtoes 7.34202
lfemur -7.70913 -0.997976 -30.0234
ltibia 23.1202
lfoot -11.6813 -8.11258
ltoes 19.8932
273
root 0.824947 17.4253 4.78694 -6.65918 -52.2134 8.83133
lowerback 6.9795 -0.897429 -5.87477
upperback 0.333975 -1.61557 1.43907
thorax -3.36783 -0.706409 4.96212
lowerneck -14.557 -2.75517 -10.8334
upperneck 22.66 -2.45626 4.64318
head 9.79357 -1.61396 3.11889
rclavicle 6.55492e-014 3.97569e-015
rhumerus -35.8807 -12.8727 -77.7307
rradius 32.1702
rwrist 3.63729
rhand -11.2261 15.3181
rfingers 7.12502
rthumb 14.8027 -14.1332
lclavicle 6.55492e-014 3.97569e-015
lhumerus -27.7001 16.4876 82.7882
lradius 24.791
lwrist -10.6358
lhand -18.1222 25.2102
lfingers 7.12502
lthumb 8.15242 55.0329
rfemur -28.4203 0.335445 16.3719
rtibia 67.0532
rfoot -8.3313 -4.15473
rtoes 7.02863
lfemur -7.99493 -1.21363 -29.8048
ltibia 23.9102
lfoot -11.8133 -8.64903
ltoes 21.6322
274
root 0.743548 17.4082 4.88283 -6.38092 -52.0154 8.41213
lowerback 7.07356 -1.08628 -5.58199
upperback 0.372847 -1.84677 1.50157
thorax -3.35718 -0.827105 4.88471
lowerneck -14.9299 -2.70209 -10.4858
upperneck 22.8905 -2.33697 4.2683
head 9.92755 -1.57308 2.94494
rclavicle 1.26725e-013 1.59028e-015
rhumerus -35.7842 -12.5527 -77.9717
rradius 32.358
rwrist 3.17622
rhand -11.2709 15.3032
rfingers 7.12502
rthumb 14.7595 -14.1513
lclavicle 1.26725e-013 1.59028e-015
lhumerus -27.4674 16.0453 83.0061
lradius 25.1987
lwrist -9.94254
lhand -18.2903 24.9786
lfingers 7.12502
lthumb 7.9902 54.8076
rfemur -29.0076 0.0863953 16.6524
rtibia 65.7413
rfoot -8.52878 -4.42433
rtoes 8.22573
lfemur -7.82312 -1.56363 -29.6716
ltibia 24.6541
lfoot -12.5418 -8.45022
ltoes 21.9116
